<?xml version="1.0" encoding="UTF-8" standalone="no"?>
<!-- Uploaded to: SVG Repo, www.svgrepo.com, Generator: SVG Repo Mixer Tools -->

<svg
   width="800px"
   height="800px"
   viewBox="0 0 128 128"
   aria-hidden="true"
   role="img"
   class="iconify iconify--noto"
   preserveAspectRatio="xMidYMid meet"
   version="1.1"
   id="svg19"
   xmlns="http://www.w3.org/2000/svg"
   xmlns:svg="http://www.w3.org/2000/svg">
  <defs
     id="defs19" />
  <g
     id="g19"
     transform="matrix(-1,0,0,1,127.08222,0)">
    <path
       d="m 47.95,111.51 37.52,0.05 39.77,-16.2 c 0,0 0.26,-12.59 -0.51,-25.62 -0.77,-13.03 -4.38,-32.84 -4.38,-32.84 0,0 0.22,-3.62 -0.22,-5.58 -0.42,-1.86 -1.54,-3.37 -4.65,-3.55 -2.85,-0.17 -67.12,0 -68.87,0.22 -1.75,0.22 -12.3,12.97 -12.3,12.97 0,0 -14.88,24.62 -15.31,25.17 C 18.56,66.68 8.84,73.23 7.29,75.22 5.67,77.3 5.78,79 5.78,79 l 0.06,16.83 z"
       fill="#e1e1e1"
       id="path1" />
    <path
       d="m 125.25,95.35 c 0,0 -21.72,-0.2 -26.21,0.74 -4.49,0.94 -7.51,3.62 -10.05,7.71 -2.55,4.09 -3.55,7.78 -3.55,7.78 0,0 35.46,-0.07 36.66,0 1.2,0.07 2.82,-1.81 2.95,-4.36 0.14,-2.55 0.2,-11.87 0.2,-11.87 z"
       fill="#516c73"
       id="path2" />
    <path
       d="m 47.97,111.5 c 0,0 -3.08,-7.37 -6.3,-10.66 -3.22,-3.29 -7.91,-5.5 -13.54,-5.7 -5.63,-0.2 -22.27,-0.33 -22.27,-0.33 0,0 -3.74,3.08 -4.01,7.43 -0.27,4.36 0,8.51 3.49,8.78 3.49,0.27 42.63,0.48 42.63,0.48 z"
       fill="#516c73"
       id="path3" />
    <path
       d="m 15.48,112.45 c 0.08,4.73 3.85,11.55 12.07,11.6 8.22,0.05 12.48,-6.24 12.22,-12.69 -0.26,-6.56 -5.36,-11.18 -12.69,-10.98 -6.87,0.2 -11.71,5.52 -11.6,12.07 z"
       fill="#4e433d"
       id="path4" />
    <path
       d="m 21.35,112.17 c 0.04,2.5 2.02,6.09 6.34,6.12 4.32,0.03 6.42,-3.1 6.28,-6.5 -0.14,-3.46 -2.9,-6.03 -6.53,-5.98 -3.6,0.05 -6.14,2.91 -6.09,6.36 z"
       fill="#c8c8c8"
       id="path5" />
    <path
       d="m 93.93,111.89 c 0.08,4.73 3.85,11.55 12.07,11.6 8.22,0.05 12.48,-6.24 12.22,-12.69 -0.26,-6.56 -5.36,-11.18 -12.69,-10.98 -6.86,0.19 -11.7,5.51 -11.6,12.07 z"
       fill="#4e433d"
       id="path6" />
    <path
       d="m 99.81,111.61 c 0.04,2.5 2.02,6.09 6.34,6.12 4.32,0.03 6.42,-3.1 6.28,-6.5 -0.14,-3.46 -2.9,-6.03 -6.53,-5.98 -3.6,0.05 -6.15,2.9 -6.09,6.36 z"
       fill="#c8c8c8"
       id="path7" />
    <path
       d="m 5.82,90.86 119.47,0.47 c 0,0 0.02,-2.12 0.02,-4.92 0,-2.76 -0.1,-4.83 -0.1,-4.83 L 5.74,81.55 Z"
       fill="#d70617"
       id="path8" />
    <path
       d="m 5.76,78.97 c 0,0 12.17,-0.05 12.83,-0.05 0.66,0 1.18,0.51 1.18,1.38 0,0.87 0.36,4.09 -2.25,6.49 -1.12,1.03 -3.54,1.25 -5.83,1.28 -3.43,0.04 -5.62,0.06 -5.9,0.06 0,0 -0.15,-6.81 -0.13,-7.64 0.04,-0.97 0.1,-1.52 0.1,-1.52 z"
       fill="#ffe365"
       id="path9" />
    <path
       d="m 34.05,41.4 87.09,-0.02 -0.35,-2.26 c -0.2,-1.29 -0.43,-2.21 -0.43,-2.21 L 46.53,37 46.62,27.98 c 0,0 -1.79,-0.21 -2.73,0.67 -1.33,1.25 -3.72,3.76 -6.03,6.79 -1.81,2.37 -3.81,5.96 -3.81,5.96 z"
       fill="#c9c9c9"
       id="path10" />
    <path
       d="m 37.32,31.86 c -2.3,2.57 -1.65,6.79 -1.65,6.79 0,0 7.48,0.24 7.74,-0.18 0.26,-0.41 0.15,-9.46 0.15,-9.46 0,0 -3.13,-0.64 -6.24,2.85 z"
       fill="#fa2b23"
       id="path11" />
    <path
       d="m 46.62,28.01 c 0.41,-0.05 23.78,-0.2 23.78,-0.2 0,0 0,-4.01 -0.04,-5.46 -0.05,-1.97 -1.61,-3.47 -4.45,-3.57 -1.99,-0.07 -13.31,-0.16 -15.12,-0.05 -1.81,0.1 -3.88,1.61 -3.99,3.88 -0.11,2.27 -0.18,5.4 -0.18,5.4 z"
       fill="#dd0f26"
       id="path12" />
    <path
       d="m 55.42,23.2 1.32,2.88 -3.16,-0.05 c 0,0 -2.43,-2.33 -2.43,-2.85 0,-0.52 2.69,-2.54 2.69,-2.54 l 3.33,-0.04 z"
       fill="#ff5b5e"
       id="path13" />
    <path
       d="m 61.07,23.26 -1.17,2.9 2.63,-0.02 c 0,0 2.7,-2.32 2.73,-2.77 0.04,-0.65 -2.71,-2.76 -2.71,-2.76 L 59.6,20.6 Z"
       fill="#ff5b5e"
       id="path14" />
    <path
       d="m 90.78,44.69 c -0.21,1.68 -0.35,16.27 -0.35,16.27 L 90.5,75.9 97.97,75.76 98.39,60.47 98.11,44.83 Z"
       fill="#1e86fe"
       id="path15" />
    <path
       fill="#1e86fe"
       d="m 79.77,65.24 12.56,-8.59 12.99,-8.24 4.05,6 -12.85,8.94 -12.98,8.03 z"
       id="path16" />
    <path
       fill="#1e86fe"
       d="m 83.12,48.69 -3.91,5.86 12.42,9.15 12.85,7.96 4.12,-5.87 -12.99,-9.14 z"
       id="path17" />
    <path
       d="m 38.09,45.76 c -1.39,0.13 -2.72,0.56 -3.77,2.16 -1.05,1.61 -10.12,18.01 -11.03,19.55 -0.49,0.83 -1.07,2.12 -0.85,3.13 0.19,0.85 1.07,1.49 2.03,1.55 2.09,0.14 28.76,-0.07 30.23,-0.07 1.47,0 2.72,-1.26 2.79,-3.49 0.07,-2.23 0.18,-18.44 0,-20.18 -0.21,-2.02 -1.54,-2.65 -3.21,-2.72 -1.54,-0.07 -14.73,-0.07 -16.19,0.07 z"
       fill="#557077"
       id="path18" />
    <path
       d="m 39.7,50.04 c -1.37,0.02 -2.43,0.47 -3.48,2.22 -0.61,1.02 -7.89,14.24 -8.1,14.87 -0.21,0.63 0.28,1.19 1.33,1.19 1.05,0 21.22,-0.14 22.48,-0.14 1.26,0 1.89,-0.91 1.95,-2.79 0.07,-1.89 0,-12.36 0,-13.47 0,-1.11 -0.56,-1.89 -2.02,-1.89 -1.46,-0.01 -10.9,-0.02 -12.16,0.01 z"
       fill="#afe3fb"
       id="path19" />
  </g>
</svg>
